<?xml version="1.0" ?><!DOCTYPE svg  PUBLIC '-//W3C//DTD SVG 1.1//EN'  'http://www.w3.org/Graphics/SVG/1.1/DTD/svg11.dtd' [
	<!ENTITY stroke_color "#000">
	<!ENTITY fill_color "#eee">
]><svg height="55px" viewBox="0 0 55 55" width="55px" xmlns="http://www.w3.org/2000/svg" xmlns:xlink="http://www.w3.org/1999/xlink" stroke-linecap="round" stroke-linejoin="round" stroke-width="2.5" stroke="&stroke_color;" fill="&fill_color;">
  <path
     d="m 49.229913,22.920115 a 8.7519846,8.1406326 0 1 1 -17.503969,0 8.7519846,8.1406326 0 1 1 17.503969,0 z"
     transform="matrix(1.1565871,-0.14438913,0.13672165,1.095169,-9.9333417,3.1599806)"
     id="path2983"
     style="fill:&fill_color;;fill-opacity:1;stroke:&fill_color;;stroke-opacity:1" />
  <path
     d="m 41.265379,10.479708 c -2.596299,0.0354 -5.064347,1.01295 -7.597009,2.30348 -0.786291,0.70329 -1.803902,1.15005 -2.738675,1.76326 -3.244114,2.15818 -4.039263,2.46566 -7.773335,2.99003 -2.049057,0.28775 -2.734269,0.48784 -4.479422,1.31682 -3.262276,1.54964 -5.515093,3.43437 -9.4390492,7.89714 -1.08405,1.2329 -2.2387667,2.4675 -2.5623497,2.74242 -0.6554289,0.55686 -1.9767704,1.43168 -2.7649363,1.83079 -0.5531277,0.28009 -0.7342132,0.54884 -0.5214737,0.76157 0.1783596,0.17836 0.7762598,-0.008 2.6824008,-0.8216 0.8379265,-0.3578 1.6008353,-0.64903 1.6957275,-0.64903 0.8306264,-0.60033 1.5622364,-1.43345 2.2434626,-2.2172 0.999977,-1.16908 1.874635,-1.84192 3.327678,-2.56985 0.410794,-0.2058 0.775451,-0.37516 0.810347,-0.37516 0.0349,0 0.06378,0.16303 0.06378,0.36015 l 0,0.35641 0.63027,-0.25886 c 0.537665,-0.22035 0.937054,-0.2653 2.716166,-0.31139 1.817899,0.26009 2.397513,-0.33357 3.792877,-0.74657 0.03521,0 0.06378,0.0707 0.06378,0.15757 0,0.0869 -0.208604,0.27596 -0.465199,0.42018 -0.922477,0.3396 -1.905614,0.50787 -2.911249,0.69405 -1.826878,0.30818 -2.421139,0.49867 -4.17179,1.32432 -1.733726,0.81766 -3.210423,1.79733 -3.9091772,2.59611 -1.566947,1.26742 -2.6387175,2.08462 -4.0517387,2.98628 -0.1989419,0.14166 -0.7695309,0.41053 -1.268044,0.59651 -0.9775448,0.36468 -1.4888241,0.76644 -1.8232822,1.42936 -0.2293829,0.45466 -0.3919631,1.25499 -0.2776191,1.36934 0.1707214,0.17072 0.3999051,0.0315 0.8628701,-0.52148 0.3734972,-0.4461 0.649668,-0.64104 1.1142281,-0.79534 0.4717059,-0.15667 0.8341007,-0.42447 1.5531663,-1.13298 1.1171329,-1.00494 2.3369775,-2.00684 3.5077545,-2.88124 0.09145,0 0.5911602,-0.2436 1.1104772,-0.54023 1.725345,-0.98553 1.810083,-0.52114 0.131306,0.72031 -0.249403,0.18443 -0.430741,0.35709 -0.401422,0.38641 0.02932,0.0293 0.632505,-0.062 1.339325,-0.20258 0.706819,-0.14055 1.315131,-0.22678 1.350579,-0.19134 0.03545,0.0354 -0.363194,0.26101 -0.88538,0.49897 -3.6563732,1.66622 -5.002846,2.47965 -6.1751493,3.73285 -1.1995576,1.28233 -2.093682,2.79091 -1.8195307,3.06506 0.2158827,0.21589 0.6563241,-0.16882 1.4443697,-1.25303 1.4150293,-1.94683 3.7471631,-3.20186 7.2818743,-3.92043 2.758342,-0.56075 4.203726,-0.59422 6.482781,-0.14632 0.997804,0.1961 1.055734,0.22443 0.754074,0.3489 -0.854389,0.35255 -2.449182,0.49656 -5.135954,0.46895 -2.685317,-0.0276 -2.707425,-0.0259 -3.511506,0.29638 -0.987785,0.39592 -1.7856522,0.8485 -2.4610562,1.3881 -1.037355,0.82877 -0.488552,0.96608 1.5306572,0.38641 1.685116,-0.48376 2.716425,-0.5634 3.882916,-0.30388 0.503658,0.11205 0.944133,0.25094 0.97917,0.30763 0.03504,0.0567 -0.384934,0.20366 -0.9304,0.32639 -1.360886,0.30622 -1.333747,0.51187 0.09004,0.71281 0.996456,0.14063 2.776053,0.6329 3.166359,0.87412 0.0948,0.0586 0.128072,0.16554 0.07503,0.25136 -0.152112,0.24612 -2.41284,0.0593 -4.561957,-0.37516 -2.416174,-0.48842 -3.8565842,-0.52283 -4.8920992,-0.12005 -1.4313422,0.55674 -2.5338535,1.6719 -3.3952069,3.43272 -0.5112188,1.04506 -0.9227015,2.30624 -0.8140993,2.49107 0.1534569,0.26117 0.6871909,-0.21513 1.4743825,-1.31681 0.8353219,-1.16905 1.6739736,-1.8779 2.7649367,-2.33351 1.262571,-0.52727 2.1095052,-0.56556 3.7853742,-0.17632 0.301056,0.0699 0.586971,0.13237 0.86287,0.18758 -1.312776,0.47359 -1.581536,-0.33249 -3.097417,0.0407 -0.6801672,0.16747 -2.9267268,1.76439 -3.4603969,2.44284 -0.3140063,0.39919 -0.6720874,1.51661 -0.5702446,1.78201 0.1300347,0.33886 0.4614499,0.15434 0.9979281,-0.55149 2.0203402,-2.12369 5.4037324,-2.87404 8.1635024,-3.42897 1.225285,0.0876 2.440722,0.006 4.123019,-0.2326 1.459012,-0.20696 3.295219,-0.65178 4.35937,-1.0542 0.407927,-0.15426 1.850294,-0.79492 3.203875,-1.42186 3.872286,-1.79352 4.492228,-1.98053 9.003863,-2.73492 5.418547,-0.90604 8.991645,-2.08576 11.224815,-3.70284 2.635857,-1.90868 4.312536,-4.30085 5.124699,-7.31564 1.384813,-5.67722 -1.750514,-10.47771 -6.692871,-12.62417 -1.45711,-0.59014 -2.853092,-0.82891 -4.213058,-0.81034 z m -1.151744,0.91914 c -1.73e-4,0.16793 0.403927,-0.1214 0.367658,0.39767 -0.04835,0.22048 -0.134153,0.43513 -0.247606,0.63027 -1.477531,1.20242 -3.448468,1.6005 -5.117196,2.38227 -0.927553,-0.0459 -1.821078,0.39664 -2.74993,0.18383 l -0.307632,-0.11255 0.446442,-0.45769 c 0.244083,-0.24997 0.879699,-0.68679 1.414357,-0.97167 0.538355,-0.29506 3.74934,-1.70768 6.193907,-2.05213 z m 0.532729,1.46313 c 0.298416,0.0662 0.847578,0.20691 1.358082,0.40892 0.462199,0.1829 1.168742,0.53116 1.568173,0.77283 0.399431,0.24168 0.823232,0.47603 0.941654,0.52148 0.198815,0.0763 0.206603,0.21413 0.127555,1.79327 -0.04709,0.94062 -0.139693,1.7777 -0.206339,1.8608 l -4.235567,2.21345 -1.56067,-0.73532 c -0.857104,-0.405 -1.793378,-0.85529 -2.082143,-1.00168 l -0.525225,-0.26636 0.02251,-1.44062 c 0.03082,-2.129 0.07117,-1.90721 1.455624,-2.57361 0.980351,-0.52939 2.304981,-1.06493 3.136346,-1.55316 z m 6.403997,1.31306 c 0.369933,-0.016 0.724357,0.0292 0.95666,0.13506 0.314731,0.1434 1.937203,2.06251 2.44605,2.89249 0.310218,0.506 0.47076,1.91477 0.32639,2.87748 -0.0925,0.61683 -0.10538,0.62821 -1.684473,1.05796 -0.525079,0.1429 -1.018098,0.28313 -1.091718,0.31138 -0.212138,0.0814 -2.259494,-2.11881 -2.569853,-2.76118 -0.260413,-0.539 -0.271645,-0.67215 -0.195083,-1.8608 0.138783,-2.15461 0.141114,-2.1683 0.754073,-2.43104 0.300686,-0.12889 0.688021,-0.20535 1.057954,-0.22135 z m -15.719244,0.98667 c 0.315748,6e-4 0.178746,0.40258 -0.450193,1.36184 -0.341065,0.52019 -0.844446,1.42094 -1.11798,2.00336 l -0.495212,1.05795 c -1.353219,0.72781 -2.657794,2.52917 -2.832465,2.71617 -0.374387,0.4008 -1.298057,2.07447 -1.298057,2.35226 0,0.1321 0.09801,0.19883 0.292625,0.19883 0.431601,0 2.5184,-1.09818 2.566101,-1.35058 0.05685,-0.30081 -0.279775,-0.26707 -0.889131,0.09 -0.282299,0.16544 -0.541406,0.25907 -0.573996,0.20634 -0.03259,-0.0527 0.07238,-0.41702 0.232599,-0.81035 0.375631,-1.40858 1.675951,-2.22706 2.697408,-3.20012 l 0.72406,0.72031 c 0.505994,0.50705 1.001319,1.08496 1.102973,1.28305 0.236759,0.46134 0.451206,2.19927 0.450194,3.66157 -7.24e-4,1.04704 -0.03305,1.19011 -0.363907,1.76701 -0.421551,0.73505 -0.833209,1.0517 -1.241782,0.94915 -0.157587,-0.0395 -0.561542,-0.32186 -0.900387,-0.62651 -0.352515,-0.31695 -0.690813,-0.52494 -0.787838,-0.48771 -0.09326,0.0358 -0.382422,0.35081 -0.641525,0.70155 -0.259103,0.35073 -0.545185,0.69898 -0.637773,0.77283 -0.405118,0.32313 -1.901692,0.57142 -2.11966,0.35265 -0.150038,-0.15059 0.427538,-0.53042 1.147993,-0.75407 0.504017,-0.15647 0.837697,-0.36464 1.28305,-0.81035 0.59058,-0.59105 1.380592,-1.88888 1.380592,-2.26972 0,-0.41827 -0.39104,-0.15968 -0.814099,0.54023 -0.832567,1.37739 -1.105611,1.60723 -2.26222,1.90206 -0.347009,0.0885 -0.659023,0.30159 -1.054203,0.72406 -0.512937,0.54838 -1.148854,1.65364 -1.151744,2.00336 -6.44e-4,0.0781 0.267252,-0.0361 0.592755,-0.25511 0.557294,-0.37503 1.611605,-0.66778 2.412284,-0.66778 0.421156,0 1.21642,-0.42183 1.665715,-0.88538 0.349979,-0.36109 0.436979,-0.39858 0.754074,-0.30763 0.730669,0.20955 1.527128,0.86621 2.836216,2.34475 0.155486,0.17561 0.299707,0.34238 0.438939,0.50272 -0.628201,0.0378 -2.137018,0.39087 -2.84372,0.57399 -0.396498,0.10275 -0.749509,0.15838 -0.784087,0.12381 -0.03458,-0.0346 0.162207,-0.43359 0.435187,-0.88538 0.550059,-0.91038 0.574431,-0.98668 0.318887,-0.98668 -0.09735,0 -0.266174,0.17191 -0.375161,0.38267 -0.285639,0.55236 -1.343124,1.6313 -1.939582,1.98085 -0.281546,0.165 -0.510219,0.37618 -0.510219,0.46895 0,0.23413 0.297936,0.21254 1.804524,-0.12756 1.236833,-0.27919 3.500613,-0.98129 4.05549,-1.34307 0.434456,0.50469 0.742819,0.87838 0.742819,0.91164 0,0.0473 -0.688796,0.3344 -1.530657,0.63777 -0.841861,0.30337 -1.780159,0.69181 -2.085895,0.86287 -0.597395,0.33425 -1.709853,1.26142 -1.620695,1.35058 0.05105,0.0511 0.999855,-0.19216 4.899602,-1.26054 1.52008,-0.41644 2.155942,-0.66026 1.590682,-0.60776 -0.972083,0.0903 -1.393842,-0.23424 -0.622767,-0.48021 0.651267,-0.20775 2.554676,-0.50128 3.293913,-0.50646 0.847231,-0.006 4.11845,0.56942 4.306848,0.75782 0.024,0.024 -1.128532,0.30538 -2.562349,0.62277 -4.027489,0.89152 -7.788591,1.82408 -9.037628,2.23971 -0.623611,0.20751 -1.835287,0.69908 -2.693655,1.09547 -5.409207,2.49793 -7.636388,3.13662 -10.924687,3.12509 -1.310418,-0.005 -1.733922,-0.0577 -2.641133,-0.31889 -0.594255,-0.17105 -1.501752,-0.3953 -2.018366,-0.49896 -1.277023,-0.25624 -2.2373442,-0.0943 -3.609049,0.61151 -0.5495517,0.23501 -1.0034978,0.39624 -1.4181084,0.79159 -0.2193598,0.1174 -0.2001738,0.0619 0.1162999,-0.33764 0.6192876,-0.78192 1.3297713,-1.35775 2.1121563,-1.71449 l 0.735315,-0.33764 2.1796862,0.34139 c 4.456508,0.69403 6.215673,0.73038 8.373592,0.18008 1.458913,-0.37204 3.371822,-1.17678 4.093006,-1.72199 0.710151,-0.53687 2.487424,-2.52297 2.393527,-2.6749 -0.09284,-0.15022 -1.537779,-0.13665 -2.40103,0.0225 -0.39179,0.0722 -1.100077,0.26073 -1.575676,0.42018 -0.986237,0.33065 -3.098042,0.71241 -4.599474,0.82911 -1.000267,0.0777 -5.119084,-0.104 -5.706198,-0.25136 -0.37171,-0.0933 -0.387906,-0.38441 -0.02626,-0.45769 0.148564,-0.0301 1.927145,-0.089 3.954197,-0.12756 4.287214,-0.0815 4.075316,-0.0374 6.752897,-1.38809 2.15215,-1.08562 2.863257,-1.52084 2.794949,-1.71449 -0.08377,-0.23748 -0.675973,-0.13746 -2.618624,0.43519 -2.922429,0.86145 -2.850348,0.85418 -5.331037,0.55148 -1.926909,-0.23512 -2.290712,-0.25017 -3.346435,-0.12005 -0.651166,0.0803 -1.646401,0.3061 -2.21345,0.49897 -0.78396,0.26664 -1.051993,0.31538 -1.121731,0.20258 -0.135832,-0.21969 0.146054,-0.43932 0.810347,-0.63027 0.324736,-0.0933 1.0482,-0.30939 1.609441,-0.4802 0.584271,-0.17783 1.584887,-0.36096 2.341004,-0.42769 2.469845,-0.21797 3.060005,-0.33304 4.014222,-0.79159 1.05164,-0.50536 1.892561,-1.30187 2.858727,-2.70491 0.346649,-0.50339 0.63027,-0.9517 0.63027,-0.99417 0,-0.0425 -0.229598,0.0663 -0.510219,0.2401 -0.28062,0.17378 -1.023439,0.56545 -1.650708,0.87412 l -1.140489,0.56275 -2.521082,-0.0225 c -1.386595,-0.0115 -2.953267,-0.0679 -3.481493,-0.12756 l -0.960412,-0.1088 1.174253,-0.55899 c 1.444909,-0.68751 2.105755,-0.87968 3.567781,-1.04294 0.627269,-0.07 1.410605,-0.18967 1.740747,-0.26262 1.736553,-0.38369 4.687928,-2.4683 5.54863,-3.92043 0.633124,-1.06817 -0.233087,-0.85808 -2.442298,0.58901 -2.106343,1.3797 -2.599396,1.5781 -4.029228,1.64695 -1.143694,0.0551 -1.178006,0.0491 -1.178006,-0.20258 0,-0.29827 0.263126,-0.42194 1.14049,-0.54024 0.330141,-0.0445 0.759682,-0.11174 0.952909,-0.15006 l 0.348899,-0.0713 -0.468951,-0.28512 c -0.613302,-0.37124 -0.969125,-0.35781 -2.404782,0.075 -1.252505,0.37761 -1.729492,0.44226 -1.729492,0.23635 0,-0.39368 5.446736,-2.03521 6.760401,-2.03712 l 0.577748,0 -0.08254,0.54023 c -0.04456,0.29712 -0.03451,0.54125 0.02251,0.54023 0.185621,-0.003 4.161562,-3.24044 5.064673,-4.12302 0.483546,-0.47255 0.963999,-1.01569 1.065457,-1.20802 0.175239,-0.33219 0.171593,-0.36185 -0.09754,-0.57399 l -0.285122,-0.22135 0.378912,-0.33014 c 0.810102,-0.47866 1.65619,-1.32268 2.63363,-1.43312 z m -4.044235,2.0934 c 0.107097,0.004 0.155264,0.0441 0.180077,0.1088 0.177508,0.46258 -3.008849,1.4671 -5.090934,1.60569 -1.061343,0.0706 -1.553345,0.23389 -2.220953,0.41643 -1.928218,0.52721 -3.121366,1.3729 -5.503611,2.88123 1.205952,-1.21759 4.45806,-3.35433 8.009686,-3.84915 0.983712,-0.13705 1.862459,-0.31706 2.716166,-0.61151 1.156421,-0.39886 1.673957,-0.55925 1.909569,-0.55149 z m -0.270116,1.16675 c 0.0089,2.2e-4 0.01634,0.001 0.01876,0.004 0.102168,0.10217 -1.203292,1.40212 -2.318494,2.311 l -0.960413,0.78408 -1.024189,-0.0788 c -1.647885,-0.12415 -3.463429,0.31329 -6.280194,1.50815 -2.383388,1.01101 -2.801994,1.06535 -1.913321,0.25135 1.251322,-1.14616 4.493415,-2.93588 6.103869,-3.36894 0.564879,-0.1519 1.271254,-0.25208 1.733243,-0.24386 0.639955,0.0114 1.12129,-0.0956 2.682401,-0.60776 0.981522,-0.322 1.824998,-0.56225 1.95834,-0.55899 z m 8.801276,0.55899 c 0.101937,0.007 1.102223,0.47981 2.224705,1.05045 l 2.040875,1.0392 0.03376,1.93958 0.03376,1.93958 -1.860798,1.57193 c -1.022198,0.86424 -1.902216,1.56938 -1.954589,1.56817 -0.148398,-0.003 -1.945927,-0.76108 -2.614872,-1.10297 -1.021052,-0.52186 -1.123589,-0.65613 -1.320566,-1.69573 -0.181141,-0.95602 -0.241377,-2.8951 -0.101294,-3.26015 0.115201,-0.30021 3.304778,-3.06499 3.51901,-3.05006 z m 14.4512,2.71992 c 0.482074,-0.005 0.638666,0.21782 0.784086,0.79534 0.333411,1.32409 -0.03061,3.0496 -0.930399,4.43065 -0.694899,1.06657 -1.275548,1.58334 -2.235959,1.9846 -1.210945,0.50594 -1.465439,0.55045 -1.609441,0.28137 -0.174361,-0.32579 -0.370363,-1.64698 -0.371409,-2.51357 -8.25e-4,-0.68511 0.06426,-0.8715 0.709054,-2.11216 0.845584,-1.62703 1.282901,-2.30853 1.553167,-2.41979 0.110055,-0.0453 0.655052,-0.18317 1.21177,-0.30763 0.383172,-0.0857 0.670006,-0.13638 0.889131,-0.13881 z m -38.731617,3.65407 c 0.0066,10e-4 0.0098,0.008 0.01126,0.015 0.07477,0.37577 -0.401223,1.01092 -1.7219892,2.30349 -0.89198,1.12497 -1.300351,1.80938 -2.4910685,2.57361 l -0.6940477,0.0825 0.5814995,-0.60776 c 0.3192705,-0.33379 1.4154367,-1.49226 2.4347947,-2.5736 1.1027172,-1.16978 1.7798552,-1.81529 1.8795562,-1.79327 z m 28.846126,0.31138 c 0.310633,-0.0456 4.770545,0.67379 4.884596,0.78784 0.0712,0.0712 0.39767,2.20064 0.39767,2.59236 0,0.36068 -0.09149,0.52357 -0.510219,0.9229 -0.631093,0.60185 -1.771201,1.46258 -2.502323,1.88706 -0.490241,0.28462 -0.668377,0.31767 -1.620696,0.30763 -1.256755,-0.0132 -2.551099,-0.24854 -3.087574,-0.55899 -0.284515,-0.16464 -0.439518,-0.38514 -0.604009,-0.87413 -0.32236,-0.95827 -0.422775,-1.72455 -0.270116,-2.06338 0.07174,-0.15924 0.757043,-0.88783 1.523153,-1.61695 1.057084,-1.00603 1.490548,-1.34046 1.789518,-1.38434 z m -20.16115,3.79288 c 0.04751,-0.003 0.07191,-0.003 0.07503,0 0.09328,0.0933 -1.034922,0.69984 -1.845791,0.99417 -0.676948,0.24572 -0.958855,0.27839 -2.35226,0.25887 -0.871871,-0.0122 -1.870552,-0.0433 -2.217201,-0.0675 -0.646451,-0.0452 -0.841574,-0.21878 -0.360154,-0.32264 0.596426,-0.12867 5.987774,-0.8183 6.700374,-0.86287 z m 4.385632,5.46609 c 0.128555,-0.0133 0.168822,0.0444 0.168822,0.15007 0,0.54154 -2.768065,2.13117 -4.134273,2.37477 -1.167968,0.20824 -1.670722,0.16802 -3.09883,-0.24761 -0.828323,-0.24107 -1.156076,-0.56587 -0.42018,-0.41643 0.214592,0.0436 1.07579,0.11312 1.913321,0.15382 l 1.523153,0.075 1.418109,-0.78784 c 1.63856,-0.90748 2.347057,-1.27246 2.629878,-1.30181 z m -3.28641,0.63027 c 0.419328,-3.1e-4 0.18886,0.26269 -0.513971,0.50272 -0.358776,0.12253 -0.990425,0.2538 -1.403102,0.28887 -0.630324,0.0536 -0.750321,0.0316 -0.750321,-0.12755 0,-0.10419 0.05076,-0.22067 0.112548,-0.25886 0.09974,-0.0616 0.926794,-0.19996 2.333501,-0.39017 0.08688,-0.0118 0.16144,-0.015 0.221345,-0.015 z"
     id="path4861"
     style="fill:&stroke_color;;fill-opacity:1;stroke:none" />
</svg>
